<?xml version="1.0" encoding="UTF-8" standalone="no"?>
<svg
   width="32"
   height="32"
   viewBox="0 0 32 32"
   version="1.1"
   id="svg2"
   sodipodi:docname="close-active.svg"
   inkscape:version="1.4.2 (ebf0e940d0, 2025-05-08)"
   xmlns:inkscape="http://www.inkscape.org/namespaces/inkscape"
   xmlns:sodipodi="http://sodipodi.sourceforge.net/DTD/sodipodi-0.dtd"
   xmlns="http://www.w3.org/2000/svg"
   xmlns:svg="http://www.w3.org/2000/svg">
  <defs
     id="defs2" />
  <sodipodi:namedview
     id="namedview2"
     pagecolor="#ffffff"
     bordercolor="#000000"
     borderopacity="0.25"
     inkscape:showpageshadow="2"
     inkscape:pageopacity="0.0"
     inkscape:pagecheckerboard="0"
     inkscape:deskcolor="#d1d1d1"
     inkscape:zoom="13.700194"
     inkscape:cx="10.07285"
     inkscape:cy="18.904842"
     inkscape:window-width="1600"
     inkscape:window-height="866"
     inkscape:window-x="0"
     inkscape:window-y="0"
     inkscape:window-maximized="1"
     inkscape:current-layer="svg2"
     showgrid="false" />
  <path
     id="path688"
     style="color:#ffffff;fill:#8caaee;fill-opacity:1;stroke:none;stroke-width:1.5"
     class="ColorScheme-Text"
     d="m 11.5,10 c -0.828449,0 -1.5,0.671551 -1.5,1.5 0,0.3978 0.158203,0.779297 0.439453,1.060547 L 13.878906,16 10.439453,19.439453 C 10.158203,19.719953 10,20.1025 10,20.5 c 0,0.827999 0.671551,1.5 1.5,1.5 0.3978,0 0.779297,-0.157453 1.060547,-0.439453 L 16,18.121094 19.439453,21.560547 C 19.719953,21.842547 20.1025,22 20.5,22 21.327999,22 22,21.327999 22,20.5 22,20.1025 21.842547,19.719953 21.560547,19.439453 L 18.121094,16 21.560547,12.560547 C 21.842547,12.280047 22,11.8975 22,11.5 22,10.672001 21.327999,10 20.5,10 c -0.3975,0 -0.780047,0.157453 -1.060547,0.439453 L 16,13.878906 12.560547,10.439453 C 12.279297,10.158203 11.8978,10 11.5,10 Z" />
</svg>
