<?xml version="1.0" encoding="UTF-8" standalone="no"?>
<svg
   width="32"
   height="32"
   viewBox="0 0 32 32"
   version="1.1"
   id="svg2"
   sodipodi:docname="max-inactive.svg"
   inkscape:version="1.2.2 (b0a8486541, 2022-12-01)"
   xmlns:inkscape="http://www.inkscape.org/namespaces/inkscape"
   xmlns:sodipodi="http://sodipodi.sourceforge.net/DTD/sodipodi-0.dtd"
   xmlns="http://www.w3.org/2000/svg"
   xmlns:svg="http://www.w3.org/2000/svg">
  <defs
     id="defs2" />
  <sodipodi:namedview
     id="namedview2"
     pagecolor="#ffffff"
     bordercolor="#000000"
     borderopacity="0.25"
     inkscape:showpageshadow="2"
     inkscape:pageopacity="0.0"
     inkscape:pagecheckerboard="0"
     inkscape:deskcolor="#d1d1d1"
     inkscape:zoom="13.700194"
     inkscape:cx="9.9268667"
     inkscape:cy="18.904842"
     inkscape:window-width="1600"
     inkscape:window-height="828"
     inkscape:window-x="0"
     inkscape:window-y="71"
     inkscape:window-maximized="1"
     inkscape:current-layer="svg2"
     showgrid="false" />
  <path
     style="color:#ffffff;fill:#bcbdbf;stroke-width:1.5;stroke:none;fill-opacity:1;opacity:0.3"
     class="ColorScheme-Text"
     d="m 14.5,10 c 0,0 0,3 3,3 h 0.75 c 0.4155,0 0.75,0.3345 0.75,0.75 v 0.75 c 0,3 3,3 3,3 v -6 C 22,10.669 21.331,10 20.5,10 Z m -4.5000002,4.5 v 6 C 9.9999998,21.331 10.669,22 11.5,22 h 6 c 0,0 0,-3 -3,-3 H 13.75 C 13.3345,19 13,18.6655 13,18.25 V 17.5 c -0.04785,-2.79345 -3.0000002,-3 -3.0000002,-3 z"
     id="path792" />
</svg>
