<?xml version="1.0" encoding="UTF-8" standalone="no"?>
<svg
   width="32"
   height="32"
   viewBox="0 0 32 32"
   version="1.1"
   id="svg2"
   sodipodi:docname="max_toggled-active.svg"
   inkscape:version="1.2.2 (b0a8486541, 2022-12-01)"
   xmlns:inkscape="http://www.inkscape.org/namespaces/inkscape"
   xmlns:sodipodi="http://sodipodi.sourceforge.net/DTD/sodipodi-0.dtd"
   xmlns="http://www.w3.org/2000/svg"
   xmlns:svg="http://www.w3.org/2000/svg">
  <defs
     id="defs2" />
  <sodipodi:namedview
     id="namedview2"
     pagecolor="#ffffff"
     bordercolor="#000000"
     borderopacity="0.25"
     inkscape:showpageshadow="2"
     inkscape:pageopacity="0.0"
     inkscape:pagecheckerboard="0"
     inkscape:deskcolor="#d1d1d1"
     inkscape:zoom="13.700194"
     inkscape:cx="9.9268667"
     inkscape:cy="18.904842"
     inkscape:window-width="1600"
     inkscape:window-height="828"
     inkscape:window-x="0"
     inkscape:window-y="71"
     inkscape:window-maximized="1"
     inkscape:current-layer="svg2"
     showgrid="false" />
  <path
     style="color:#000000;fill:#5d656b;stroke-width:1.5;stroke:none;fill-opacity:1"
     class="ColorScheme-Text"
     d="m 11.5,10 c -0.831,0 -1.5000001,0.669 -1.5000001,1.5 v 9 C 9.9999999,21.331 10.669,22 11.5,22 h 9 c 0.831,0 1.5,-0.669 1.5,-1.5 v -9 C 22,10.669 21.331,10 20.5,10 Z m 2.25,4.5 h 4.5 c 0.4155,0 0.75,0.3345 0.75,0.75 v 3 C 19,18.6655 18.6655,19 18.25,19 h -4.5 C 13.3345,19 13,18.6655 13,18.25 v -3 c 0,-0.4155 0.3345,-0.75 0.75,-0.75 z"
     id="path847" />
</svg>
